<?xml version="1.0" standalone="no"?><!DOCTYPE svg PUBLIC "-//W3C//DTD SVG 1.1//EN" "http://www.w3.org/Graphics/SVG/1.1/DTD/svg11.dtd"><svg t="1737703340560" class="icon" viewBox="0 0 2752 1024" version="1.1" xmlns="http://www.w3.org/2000/svg" p-id="4519" xmlns:xlink="http://www.w3.org/1999/xlink" width="537.5" height="200"><path d="M609.226361 490.672874c-9.263591-4.31078-18.038016-3.301874-26.262129 3.026718-21.431609 16.478798-21.64562 21.737338-1.25349 39.011032 8.499269 7.184634 18.129735 7.887811 28.004785 3.699322 9.722185-4.127343 13.421507-12.382028 13.513226-22.562807 0.091719-11.464841-4.035624-18.588329-13.971819-23.174265zM516.192998 492.996415c-9.263591-7.276352-19.811245-6.634321-30.05317 0.825468-8.346404 6.084009-11.709424 17.671141-8.193539 28.37166 3.301874 10.058487 13.390934 17.02911 24.336035 16.784527 8.774425-0.183437 30.05317-15.439319 33.049315-23.571713 0.886614-2.41526 0.091719-4.249634-1.559218-5.869998-5.808853-5.594842-11.281403-11.587133-17.579423-16.570517z" fill="#BA232B" p-id="4520"></path><path d="M556.824394 531.640572c-3.943905-4.280207-7.643227-4.677655-11.831716-0.214011-4.463645 4.769374-9.110727 9.385883-13.8801 13.880101-14.674996 13.880101-33.202179 17.579423-48.947228 9.966769-14.980725-7.245779-25.772962-26.017546-24.672338-43.016084 1.345208-21.431609 12.106872-36.014887 31.153795-41.976604 18.924631-5.931144 33.049315 2.506979 46.012228 15.164163 16.356506 15.959059 16.509371 15.806194 32.46843-0.305729 12.229164-12.351455 12.290309-27.729629-0.244584-39.561344-18.71062-17.701714-41.395719-25.74239-61.634984-26.873588-72.946961 0.794896-120.365543 68.666754-93.369665 131.952676 25.375515 59.494881 106.210286 76.890867 153.53715 32.621294 13.971819-13.085205 14.39984-27.913066 1.192343-41.640302-3.240728-3.36302-6.664894-6.573175-9.813904-9.997341z" fill="#BA232B" p-id="4521"></path><path d="M628.640158 218.75742c4.616509 5.136249 10.547654 8.774425 18.068589 8.560414 8.835571-0.21401 15.286455-4.219061 19.688954-11.923434 4.433072-7.765519 3.699322-15.469892-1.773229-21.798485-18.313173-21.12588-36.198324-42.649208-56.131861-62.307588-8.346404-8.254685-18.955204-8.040675-27.546191-0.091719-10.150206 9.385883-11.587133 20.330985-3.485312 29.594576 16.937392 19.413797 33.935929 38.797022 51.17905 57.935663zM398.120423 724.249899c16.60109 18.557756 32.621294 37.665824 50.781602 54.756081 5.961717 5.594842 13.146351 9.324737 22.134786 5.441978 15.806194-6.817759 18.588329-25.314369 5.625416-39.561345-3.974478-4.371926-8.224113-8.468696-12.229164-12.810049-11.55656-12.596039-22.868536-25.467233-34.639106-37.879834-7.490363-7.887811-17.273694-6.878905-26.231556-3.821614-7.887811 2.690416-10.792237 9.844477-10.150206 18.007444-0.519739 5.99229 0.794896 11.464841 4.708228 15.836767zM656.675516 97.719272c5.717134 7.337498 12.412601 14.338694 21.584473 17.120829 9.233019 2.782135 20.453276-3.118437 25.161505-11.892861 4.127343-7.704373 1.436927-18.160308-5.869999-26.537285-15.286455-17.518277-32.376711-33.41619-46.501395-51.943373-5.717134-7.490363-18.680047-11.77057-26.873587-9.019008-9.691612 3.240728-14.094111 9.661039-14.094111 21.492755-0.703177 5.686561 2.537551 10.272497 6.634321 15.500465 12.443174 15.897913 27.576764 29.349993 39.989366 45.278478zM695.411391 317.141041c-12.259737 0.73375-20.39213 9.569321-19.046922 23.877442 2.384687 25.283796 2.996145 50.873321 9.661039 75.637378 2.751562 10.211352 11.342549 16.876246 21.003589 15.959058 12.229164-1.161771 18.680047-7.796092 19.23036-19.933537 0.183437-4.341353 0.030573-8.713279 0.030573-13.054632 0.091719 0 0.183437 0 0.305729-0.030573-2.078958-20.361557-4.09677-40.753688-6.298019-61.115245-1.650937-15.317027-9.813904-22.226505-24.886349-21.309318zM740.567578 295.495422c3.852187 12.015153 15.745048 16.539944 28.096504 12.382028 9.569321-3.240728 15.683902-15.592184 12.351455-26.078692-7.857238-24.855775-15.928486-49.650404-24.122025-74.414461-3.699322-11.128539-10.180779-15.439319-21.615047-15.3476-12.596039 0.122292-19.597235 7.643227-20.667287 20.361558-0.764323 9.049581 4.738801 15.928486 6.389738 24.030306 4.157916 20.453276 13.268643 39.286188 19.597235 59.036288zM469.752749 317.416197c13.085205 2.720989 26.17041-7.337498 26.292702-20.60614 0.091719-11.097966-5.197395-18.007443-17.059683-21.309318-23.388275-6.542603-47.143426-11.464841-71.112587-15.103017-14.063538-2.140104-24.886348 5.869999-26.414994 18.618902-1.406354 11.617705 7.765519 22.471088 20.575568 24.916921 22.59338 4.341353 45.18676 8.835571 67.718994 13.513225zM474.980717 46.907097c19.933537 9.508175 38.705303 21.095307 57.568787 32.499003 15.561611 9.416456 32.68244 0.336302 33.660773-18.252027 0.458594-10.425362-5.717134-16.60109-13.910673-21.401036-7.490363-4.402499-15.317027-8.010102-22.685099-12.779476-14.308121-9.202446-29.53343-17.059683-44.66702-24.916921-8.774425-4.585936-16.662235-0.978333-22.654526 5.655988-7.643227 8.468696-8.101821 16.876246-2.384687 25.681243 3.791041 5.808853 8.652133 10.425362 15.072445 13.513226zM776.73533 158.895664c3.14901 7.031769 4.952811 14.552705 10.30307 20.759005 7.887811 9.1413 18.160308 12.045726 27.974212 6.603748 9.722185-5.380832 13.604945-15.928486 8.866144-27.271035-10.180779-24.305463-19.96411-48.824936-32.162701-72.243784-5.533697-10.608799-13.941247-14.338694-25.43666-11.434268-9.508175 2.41526-14.124684 9.416456-14.032965 21.401036 0 4.402499 0.73375 8.62156 2.568124 12.718331 7.368071 16.478798 14.491559 33.049315 21.890203 49.497539zM417.564793 146.941656c0.550312 11.189685 8.438123 16.570517 16.723381 20.544995 14.002392 6.695467 28.616243 12.015153 42.588063 18.924631 8.62156 4.249634 17.732287 7.643227 26.873587 10.639372 15.194736 5.013957 28.065931-4.433072 27.913066-21.890203 1.039479-8.071248-4.280207-13.880101-12.748903-17.701714-11.587133-5.197395-23.235411-10.333643-34.761398-15.683903-7.857238-3.668749-15.897913-6.756613-23.571713-11.097966-9.661039-5.472551-20.820151-9.661039-32.009836-3.79104-7.612654 4.005051-11.495414 10.792237-11.03682 20.025255zM330.462575 80.476152c23.449421 4.677655 46.929416 9.1413 70.439983 13.45208 11.831716 2.170677 23.694005-5.717134 25.497806-16.478798 2.078958-12.351455-5.289113-22.746244-17.518277-25.52838-13.574372-3.087864-27.332181-5.075103-40.784261-9.080154-13.024059-3.852187-26.781868-5.227967-37.757543-7.215206-15.408746 0.183437-22.685099 7.368071-23.0214 20.300412-0.336302 13.115778 7.184634 21.370463 23.143692 24.550046zM435.358226 862.531168c19.902964 14.338694 40.172803 28.157649 60.198058 42.312906 6.084009 4.280207 12.320882 6.145155 19.108069 2.048385 7.368071-4.463645 14.277549-9.385883 13.176923-19.536089 0.580885-7.520936-2.201249-13.45208-8.254685-17.793433-22.471088-16.050777-43.71926-33.813638-67.474411-48.121759-7.796092-4.708228-15.714475-3.791041-22.07364 2.445832-12.351455 12.076299-10.486508 27.271035 5.350259 38.644158zM543.402887 749.869997c7.276352 2.537551 15.011298 3.913332 22.654526 5.227968 16.784527 2.904426 33.202179 7.979529 50.292435 9.171873h2.812708c13.880101 0 19.719526-4.433072 21.706766-16.417653 1.926093-11.587133-3.974478-20.759005-16.325934-24.244317-6.817759-1.926093-14.338694-1.834375-20.850724-4.371926-16.448225-6.389738-33.813638-8.19354-50.934467-10.792237-12.993486-1.987239-21.156453 3.546457-23.816296 14.124684-3.271301 12.962913 1.559218 22.80739 14.491559 27.332181zM599.87105 335.72937c6.94005 4.494218 13.543799 4.035624 19.96411-0.672604 12.229164-8.957862 14.002392-18.404891 5.869999-31.398378-2.62927-4.188489-5.594842-8.254685-8.835571-11.98458-12.015153-13.818955-25.22265-26.598431-36.656918-41.028844-4.616509-5.808853-10.975674-10.272497-19.291506-10.058487-8.774425 0.458594-16.753954 2.751562-20.91187 11.403695-4.341353 9.080154-1.987239 17.854579 5.136249 25.589525 8.40755 9.1413 15.714475 19.291506 24.427754 28.06593 9.997341 10.08906 18.068589 22.165359 30.297753 30.05317zM816.602403 328.147289c-3.057291 25.283796-5.197395 50.65931-7.948956 78.388939-0.244583 13.23807 7.612654 22.623953 21.095307 22.80739 12.290309 0.152865 21.431609-8.132394 23.174265-23.235411 2.904426-24.978067 5.105676-50.047852 6.909478-75.148211 0.886614-12.50432-6.51203-20.17812-18.618902-21.217599-13.360361-1.161771-23.082546 5.411405-24.672337 18.374319zM909.57462 684.719128c0.366875 7.826665 2.720989 14.889007 10.272498 18.435464 8.376977 3.943905 17.579423 4.31078 24.733483-1.834374 19.199787-16.539944 38.246709-33.324471 56.315299-51.117904 5.625415-5.533697 14.094111-12.840622 9.599893-22.562807-6.236873-13.45208-19.138641-26.292702-35.892595-11.831716-2.354114 2.017812-4.83052 3.882759-7.24578 5.839425-15.897913 12.901768-29.839159 28.004785-45.737072 40.937126-6.573175 5.350259-12.901768 12.076299-12.015153 22.134786zM790.676576 788.514155c7.918383-1.773229 14.032965-6.51203 16.234215-15.011299 4.983384-19.108068-9.722185-31.856971-30.970357-27.026452-23.021401 5.227967-46.073374 10.30307-69.125347 15.378174-13.45208 2.965572-19.44437 11.464841-17.824006 25.558952 1.222916 10.700518 10.364216 17.915725 23.96916 17.76286 7.887811 0.611458 15.86734-4.616509 24.764057-6.145155 17.732287-3.057291 35.403429-6.573175 52.952278-10.486508zM702.045713 948.441042c-26.751296-5.411405-52.952279-13.482653-80.039876-17.151402-12.473747-1.68151-20.973016 4.891665-23.663432 17.212548-2.934999 13.482653 4.861093 23.54114 22.471088 27.271035 23.694005 4.983384 47.479728 9.447029 71.326597 13.66609 12.810049 2.262395 24.886348-8.101821 24.641765-20.39213-0.152865-8.957862-6.450884-18.955204-14.766715-20.636714zM945.62008 426.53091c11.525987 2.812708 18.313173-0.397448 24.213744-11.801143 1.712083-3.301874 3.424166-6.756613 4.157916-10.333643 4.952811-24.305463 10.027914-48.580353 14.216402-73.008107 1.956666-11.373122-4.861093-20.636714-14.61385-22.715672-12.351455-2.62927-22.07364 2.201249-25.74239 13.75781-2.720989 8.529842-3.393593 17.732287-6.420311 26.139837-6.481457 18.007443-7.184634 37.054366-11.220257 52.463112-0.244583 14.766715 5.472551 23.051973 15.439319 25.497806zM981.115227 471.411941c-8.101821 14.644423-16.937392 28.891399-25.22265 43.413531-4.31078 7.551509-8.804998 15.072444-12.106872 23.082546-5.931144 14.369267 4.066197 29.900305 19.811246 29.930878 6.206301-0.244583 12.932341-1.436927 17.090256-8.774425 13.635517-23.999734 27.607337-47.846603 41.212281-71.876909 3.57703-6.328592 3.760468-12.840622-1.039479-19.199787-12.871195-16.967965-29.288847-15.469892-39.714209 3.424166zM825.223964 547.844214c0.061146 9.905623 4.066197 16.570517 12.412601 19.138641 11.495414 3.546457 19.108068 0.825469 25.620098-9.202446 3.882759-5.99229 7.948956-11.892862 11.495414-18.068589 10.058487-17.487704 19.780672-35.189418 29.900305-52.64655 5.013957-8.62156 2.231822-15.255882-3.974478-21.737338-9.080154-9.447029-15.408746-11.709424-23.449422-7.184634-6.298019 3.546457-11.189685 8.40755-14.980725 14.91958-9.538748 16.325933-17.793433 33.385617-28.646816 48.9778-4.983384 7.154061-8.62156 15.194736-8.346404 25.834109zM868.27062 215.333254c0.94776 20.514422 5.655988 40.539678 7.368071 60.992954 1.375781 16.478798 17.854579 24.733484 31.459523 17.304266 9.691612-5.289113 10.150206-14.797288 9.936196-25.742389-0.73375-8.560415-1.589791-18.466037-2.476406-28.341087-1.284062-14.552705-2.323541-29.10541-3.974478-43.627541-1.559218-13.574372-11.525987-21.64562-24.183171-20.269839-13.054632 1.406354-20.453276 11.006247-19.199787 24.825202 0.458594 4.952811 0.794896 9.905623 1.039479 14.858434zM647.136768 669.616111c3.424166 12.443174 10.150206 17.915725 22.562807 17.76286 2.659843 0.122292 5.869999-1.039479 9.202446-1.834374 7.734946-1.834375 13.696663-7.184634 20.973015-9.997342 15.3476-5.931144 30.603482-12.137445 45.18676-19.811245 11.220258-5.900571 15.194736-18.007443 9.630466-29.349993-4.402499-8.988435-17.059683-12.810049-29.625149-8.682706-22.226505 7.276352-42.526917 19.077495-64.203109 27.699056-9.538748 3.791041-15.836767 16.692808-13.757809 24.213744zM275.431339 207.965183c0.336302 13.085205 6.145155 19.077495 19.811245 19.413797 13.085205 0.336302 26.17041 0.061146 39.255615 0.061146 13.085205 0 26.17041 0.183437 39.255615-0.061146 14.063538-0.275156 21.003589-6.756613 21.339891-19.291506 0.366875-13.085205-6.359165-21.12588-20.39213-21.462182-26.781868-0.672604-53.59431-0.580885-80.376179 0-13.421507 0.275156-19.260933 7.734946-18.92463 21.339891zM867.169995 824.529042c23.174265-9.691612 45.798218-20.667287 68.880764-30.603483 9.508175-4.09677 12.748903-11.128539 12.748904-20.636713 0.061146-16.234215-14.552705-25.589525-29.747441-19.01635-22.776817 9.844477-45.584208 19.658381-68.361025 29.502858-9.997341 4.31078-18.955204 18.404891-16.295361 25.620097 5.594842 15.164163 17.824006 21.401036 32.804732 15.133591zM857.784112 666.956268c9.233019-7.551509 21.12588-12.259737 27.209889-23.602286 5.105676-9.508175 4.280207-16.631663-3.546457-24.427755-8.254685-8.224113-15.775621-9.324737-25.039213-4.157915-23.174265 12.901768-42.618635 31.031503-64.600557 45.675926-5.839426 3.882759-11.067393 10.180779-11.281403 20.606141-0.21401 4.922238 6.114582 14.950153 13.696663 18.771766 6.695467 3.332447 13.268643 2.354114 19.383224-1.89552 14.797288-10.241925 30.26718-19.627808 44.147281-30.970357zM752.613305 548.608536c8.988435-18.129735 19.719526-35.219991 30.083742-52.55483 9.385883-15.683902 3.424166-30.511763-13.635517-34.455669-8.804998-2.048385-20.483849 3.943905-25.406088 13.45208-4.157916 8.010102-8.896717 15.653329-13.635517 23.32713-7.154061 11.617705-14.277549 23.357703-20.17812 35.648012-7.123488 14.91958 3.179583 31.337232 18.894057 31.581815 7.979529 0.122292 19.169214-7.45979 23.908015-16.998538zM24.427754 412.681382c7.704373 3.974478 20.39213 1.620364 27.118171-4.647082 11.342549-10.608799 22.409942-21.431609 34.639106-31.062076 8.040675-6.328592 15.378173-13.635517 22.409942-21.064734 10.82281-11.373122 8.988435-24.550046-3.913332-32.070982-10.853383-6.328592-19.658381-5.04453-31.276086 5.166822-16.142496 14.18583-32.254419 28.37166-47.999467 43.016083-5.747707 5.350259-12.840622 10.578227-11.55656 20.330985 0.428021 8.315831 2.354114 16.111923 10.547654 20.361557zM392.892455 1011.084933c9.080154 0.519739 15.317027-4.341353 18.741194-12.351455 4.09677-9.508175 1.650937-18.618902-4.922239-26.078692-15.745048-17.915725-31.918117-35.495148-47.968894-53.135716-3.393593-3.729895-7.6738-6.298019-12.534893-7.796092-9.813904-3.026718-20.055828 0.917187-25.895254 9.966769-5.197395 8.010102-3.852187 14.216403 3.087864 23.602286 13.880101 18.741193 31.398378 34.211085 46.073374 52.279674 5.594842 6.878905 12.320882 14.491559 23.449421 13.543799zM9.508175 565.545928c11.097966 6.328592 21.615047 3.699322 29.655722-8.010102 15.13359-22.043067 26.69015-46.165093 40.325667-69.094775 1.498073-2.506979 1.436927-5.961717 1.68151-7.123488 0.122292-11.128539-8.010102-22.685099-16.020205-24.733483-8.682706-2.231822-21.248172 3.821614-26.048118 14.124684-5.533697 11.892862-13.45208 22.287651-19.383225 33.905356-5.472551 10.731091-12.473747 20.759005-17.701714 31.581815-4.83052 10.027914-0.428021 24.794629 7.490363 29.31942zM255.58952 949.816823c11.03682-2.782135 17.365412-10.058487 17.395986-20.055828 0.122292-9.966768-6.72604-17.181975-10.058487-25.772963-7.429217-19.169214-16.111923-37.72697-24.978067-56.22358-5.166822-10.792237-16.60109-15.103017-26.629004-10.822809-9.477602 4.066197-16.845673 17.579423-13.268643 26.048118 10.700518 25.467233 21.706765 50.812175 32.957597 76.065398 3.913332 8.743852 15.103017 13.176924 24.611191 10.761664zM826.018859 867.667416c-27.271035 1.161771-54.419778 4.066197-81.109928 9.936196-13.146351 2.904426-18.313173 11.097966-16.570516 23.724577 1.436927 10.608799 10.669945 17.946298 22.960254 17.181975 26.598431-1.589791 53.166289-3.607603 79.458991-8.224112 11.678851-2.048385 17.212548-8.957862 17.059684-20.636714-0.152865-14.369267-7.429217-22.623953-21.798485-22.012495zM639.921561 875.402362c5.869999 1.803802 12.229164 2.078958 15.959059 2.659843 14.277549 0.183437 23.021401-7.582081 24.4889-19.597234 1.131198-9.233019-7.001196-21.003589-16.29536-23.265984-5.441978-1.345208-11.006247-2.109531-16.417653-3.454739-15.041871-3.729895-30.970357-3.668749-45.492488-9.477602-5.961717-2.384687-11.709424-3.821614-18.007444-3.821613-11.311976 0.030573-22.654526 9.87505-23.663432 20.60614-0.825469 9.1413 8.101821 19.841818 18.588329 22.623953 20.116974 5.319686 40.87598 7.582081 60.809516 13.727236zM554.072832 983.20244c-15.469892-9.171873-30.756347-18.649475-46.379103-27.546191-9.35531-5.319686-18.404891-11.923435-29.930878-11.954008-15.745048-0.122292-24.886348 14.460986-19.016349 29.197129 3.729895 9.35531 12.443174 11.525987 19.627807 16.111923 18.313173 11.709424 36.962647 22.868536 56.529309 32.376711 11.617705 5.655988 25.039213 1.742656 29.961451-8.040676 5.075103-10.058487 0.183437-23.602286-10.792237-30.114315zM112.905753 734.430678c-7.092915 5.655988-7.918383 12.901768-7.398644 20.91187 0.489167 27.148743 5.564269 53.747174 9.905623 80.437324 0.825469 5.105676 3.729895 9.233019 8.713279 11.403695 17.273694 7.520936 32.68244-2.476406 31.367805-21.278745-1.803802-26.048119-4.280207-52.065664-7.45979-77.991491-2.201249-18.190881-20.91187-24.764056-35.158845-13.482653zM74.628471 597.739201c-10.608799-1.498073-21.156453 7.306925-24.122025 20.055829-1.559218 6.634321-2.170677 13.421507-4.371926 20.025255-6.267446 18.588329-9.110727 38.032699-11.342549 57.385351-1.375781 11.831716 6.084009 21.095307 15.928485 23.296557 10.639372 2.354114 17.273694-1.650937 23.632859-13.482653 5.289113-9.844477 6.542603-20.697859 8.713279-31.306659 3.485312-17.02911 6.634321-34.088794 9.110727-47.051708 0.275156-17.915725-6.420311-27.332181-17.518277-28.891399zM276.990557 554.295098c8.560415-14.797288 18.068589-29.074837 26.231556-44.116708 5.105676-9.416456 12.596039-18.190881 11.617705-28.738535-0.122292-11.739997-5.686561-18.618902-16.173069-21.278745-8.529842-2.170677-18.374318 2.782135-23.75515 11.006248-10.547654 16.142496-18.190881 33.966502-29.31942 49.772696-2.996145 4.249634-4.769374 9.447029-6.573175 14.39984-4.402499 12.259737-0.611458 25.467233 9.416456 28.891399 10.883956 3.699322 20.544995 3.913332 28.555097-9.936195zM193.343077 342.210827c6.909477 0.244583 15.011298-5.319686 23.755151-9.324738 17.76286-8.162967 35.739731-15.928486 53.624883-23.816296 3.546457-1.559218 6.206301-3.913332 8.040675-7.429217 5.839426-11.281403 4.83052-20.116974-3.485312-29.044263-5.441978-5.839426-17.54885-6.817759-27.057025-1.803802-5.227967 2.751562-10.486508 5.289113-15.959058 7.582081-16.876246 7.031769-33.6302 14.338694-50.170144 22.134787-10.027914 4.738801-14.705569 15.806194-12.106872 25.772962 2.751562 10.547654 9.538748 15.928486 23.357702 15.897913zM295.915188 621.738935c2.109531 21.615047 3.852187 43.291239 6.420311 64.875713 1.4675 12.412601 9.35531 20.667287 18.557755 21.462183 18.038016 1.498073 27.63791-7.45979 25.100359-26.598431-3.087864-23.388275-3.515885-47.021134-7.092915-70.348264-2.170677-14.18583-17.243121-22.287651-30.389472-16.753955-12.810049 5.380832-12.932341 16.111923-12.596038 27.393327zM211.992552 417.511902c3.485312-9.080154 1.253489-17.334839-5.900571-23.571713-7.520936-6.573175-15.255882-7.306925-23.938588-2.170676-4.952811 2.934999-8.804998 6.756613-12.534893 10.975674-14.430413 16.142496-28.830253 32.284992-43.50525 48.182905-6.756613 7.306925-9.844477 18.649475-5.900571 26.690149 4.157916 8.499269 11.648278 11.617705 21.523328 11.434268 5.197395 0.366875 10.394789-1.589791 14.369267-5.931144 17.181975-18.771766 34.302804-37.574105 51.240196-56.559882 2.201249-2.445833 3.424166-5.900571 4.647082-9.080154zM174.235009 630.482787c10.119633-22.471088 13.849528-47.051707 23.32713-69.767379 7.123488-17.120829-0.061146-27.057025-12.962914-32.865877-11.159112-5.013957-23.816296 3.913332-28.432805 18.466037-3.546457 11.220258-6.72604 22.501661-11.067393 33.538482-5.594842 14.338694-9.966768 29.380566-11.801143 43.168947 0.336302 10.761664 4.066197 17.151402 12.993486 20.17812 12.443174 4.219061 22.440515-0.519739 27.943639-12.748903zM208.660105 762.129734c0.611458 6.634321 3.791041 11.55656 9.783331 14.889007 17.793433 9.844477 33.079888-1.284062 32.865877-26.812442-2.384687-20.147547-5.04453-42.98551-7.796092-65.762327-0.458594-3.699322-1.070052-7.429217-2.231822-10.945102-2.048385-6.145155-5.594842-10.792237-12.596039-12.443174-17.090256-3.974478-28.37166 5.380832-27.026451 23.969161 1.864947 25.74239 4.585936 51.39306 6.970623 77.104877zM108.197525 269.753032c7.520936-3.791041 15.286455-6.909477 22.990828-10.272497 15.897913-6.94005 31.918117-13.788382 47.265718-21.85963 10.547654-5.533697 12.748903-17.915725 6.817758-28.402233-5.717134-10.119633-18.343745-14.18583-28.127076-9.538748-20.17812 9.569321-40.233948 19.383224-61.26811 26.965306-15.836767 5.717134-22.318224 13.146351-22.257078 25.314369 0.061146 17.671141 17.02911 26.598431 34.57796 17.76286zM202.209221 157.305872c23.846869-2.078958 47.663165-4.494218 71.479462-6.878904 11.892862-1.192343 20.514422-10.761664 20.575568-22.501661 0.061146-14.094111-5.869999-20.820151-20.086402-21.370464-7.734946-0.305729-15.531038 0.642031-23.265984 1.375781-17.946298 1.742656-35.953741 3.240728-53.80832 5.747707-13.329788 1.864947-21.553901 9.691612-22.348796 19.108068-1.375781 16.050777 9.630466 26.109264 27.454472 24.550046zM350.365539 339.09239c-24.825202 8.132394-48.641498 19.016349-71.846337 30.756347-13.054632 6.603748-16.417652 16.845673-12.015153 26.017545 6.878905 14.39984 17.02911 18.71062 30.970357 13.635518 8.774425-3.210155 16.111923-9.080154 25.00864-12.320883 14.246976-5.227967 27.790774-12.290309 41.732021-18.343745 8.957862-3.882759 12.259737-10.914529 12.076299-17.273694 0-15.3476-14.002392-26.353848-25.925827-22.440515zM310.070445 818.689616c7.704373 14.91958 16.142496 29.472284 24.978066 43.749833 5.839426 9.416456 16.876246 13.727236 24.764057 11.159112 10.211352-3.332447 16.417652-10.945101 16.478798-20.239266 0.152865-4.769374-0.672604-9.477602-3.087864-13.513226-11.709424-19.44437-23.724577-38.67473-34.119367-58.913996-2.506979-4.891665-6.420311-9.202446-10.30307-13.176924-6.084009-6.236873-16.417652-6.573175-25.22265-1.467499-6.787186 3.943905-10.853383 15.286455-8.92729 23.785723 2.476406 11.006247 10.455935 18.985777 15.43932 28.616243z" fill="#BA232B" p-id="4522"></path><path d="M1354.655031 446.005853l-2.659843 146.413662-34.455668 54.32806-84.80925 0.672604-3.301874-101.379767 49.680977 12.596039-1.314635-84.136646-34.455669 13.238069-19.199787-92.758206 52.340821-12.596039-1.314635-92.758206-37.757543-0.672604-5.289113-79.489564 41.732021-1.987239-1.314636-95.418049 88.111125 5.289113-1.314635 85.481854 31.153794-1.987239-3.974478 90.098363-29.166556-0.672604-1.314635 72.885816 25.834109-5.961718 7.276352 75.545659-34.455669 13.238069z m393.56506 0l55.642695 162.984179-76.18769 34.455669-31.795826-137.150071c-15.011298 59.617173-33.569054 104.467631-55.642694 134.490228l-76.860294-39.102751c36.198324-75.545659 60.717798-139.56533 73.55842-192.150734 3.974478-18.099162 7.062342-33.141034 9.263591-45.064468l-40.417386 1.314635-24.519473-92.085603-3.301874 68.911338-41.732021-0.672604-0.672604 42.404625 27.821347-15.897913 42.404625 80.162168-51.026185 47.693738-19.872391-66.924098-3.974478 199.427086-66.924098 6.634321-1.98724-239.171868-30.48119 137.150071-60.962381-17.212548L1422.893765 363.825874l38.430146 3.974478v-27.148744l-55.000663-1.314635-3.974478-76.860293 58.302537-1.987239-0.672604-53.655456-48.366342 6.634321V143.914938l157.022462-37.757543 16.570516 84.136646-45.706499 5.961718-1.314635 60.96238 38.430147-1.314635-5.961717-21.217599 58.975141-17.212548 20.544995 121.252158c9.263591-60.503787 14.338694-135.590852 15.225309-225.261194l65.57889-0.672604c0.428021 12.382028 0.672604 30.48119 0.672604 54.328059 0 95.84607-7.276352 185.975006-21.85963 270.325663l-2.659843 15.225309 41.08999-6.634322z m-280.261858-77.532897l-1.987239 9.263591v18.557756l1.987239-27.821347z m256.414989-13.23807l25.834108-135.835435 58.302538 19.872391-35.770304 120.579553-48.366342-4.647082zM2040.405384 402.959197l-90.098364 7.276353-3.301874-103.367006 101.379767 3.974478-7.948956 92.085602zM2368.36098 479.146887l23.846869 130.515749-66.251494 13.23807-1.987239-34.455669-158.337096 38.430147-13.910674-82.822011 77.532897-11.923435-1.314635-74.873054h-15.897912v1.987239l-51.668217-1.987239-5.289113-235.869994 64.264255-3.301874-5.289113 182.214538 28.493951 0.672604-1.987239-119.937522-13.23807 0.672604-3.974478-60.962381h5.961717l-1.314635-103.367006 90.770967 9.263591-1.987239 93.430811h37.757543l31.153795 33.141033-11.250831 188.818287-22.532234 17.885152-40.417386-0.672604-1.314635 60.289777 9.263591-1.987239-1.987239-35.770304 51.026186-2.659843z m-70.898576-77.532898l25.834108 0.672604-0.672604-123.239397-21.85963 0.672604-3.301874 121.924762z m435.969684 177.567457l-125.226636-3.301875-2.659843 66.924099-88.111124 5.961717-3.301874-74.873055-117.27768-3.301874-5.961717-63.591651 119.937523-4.647082-1.987239-45.064468-25.834109-0.672604v10.608799l-69.553368-0.672604-10.608799-295.51774 47.693738-0.672604-10.6088-42.404625 74.873055-18.557755 28.493951 58.975141 43.71926-1.314635 14.583278-61.604412 90.770967 29.166556-14.583277 31.795825 48.366342 41.732021-7.276353 202.08693-51.668216 50.353581-54.32806-1.314635-1.314635 39.744782 127.886479-4.647082-5.961717 84.80925z m-249.108064-190.163495l56.315299 1.314635-0.672604-45.064468-55.642695-1.314635v45.064468z m1.314636-100.707163l53.655455-3.301874-0.672604-40.417386-53.013424 0.672604v43.077229z m155.707826 103.367006l-3.974478-149.073505-39.744782 0.672604-0.672604 39.102751 35.770303-1.98724-4.647082 68.238734-31.795825-1.314635v43.71926l45.064468 0.672604z" fill="#BA232B" p-id="4523"></path><path d="M1193.230071 880.599757c4.035624 1.131198 9.049581 2.140104 14.950153 2.140104 11.311976 0 18.49661-5.380832 21.737338-22.746245l14.980726-79.092116h32.437856l-15.897913 83.066594c-6.420311 33.6302-21.12588 47.29629-52.401966 47.296291-8.19354 0-17.518277-1.192343-21.920776-2.996145l6.084009-27.699056zM1360.158155 780.9015l-24.27489 128.283927h-32.437856l24.274889-128.283927h32.437857zM1444.325374 780.9015l-13.788382 72.794097c-0.856041 4.127343-1.436927 9.1413-1.436927 14.858434 0.152865 7.765519 5.105676 15.653329 16.478798 15.653329 12.993486 0 20.973016-8.529842 25.130932-30.26718l13.849527-73.03868h32.437857l-13.45208 71.265451c-7.45979 39.102751-23.663432 59.097433-61.848995 59.097434-28.79968 0-44.911604-14.522132-44.911604-42.160042 0-5.564269 0.794896-11.98458 1.895521-18.190881l13.238069-70.042535h32.437857zM1711.868902 905.914126c-6.603748 2.934999-18.190881 5.289113-34.027648 5.289113-34.730825 0-58.730558-20.789578-58.730558-54.970091 0-30.970357 14.216403-53.013424 34.547387-65.395452 13.360361-8.285258 28.707962-11.954007 46.501395-11.954008 13.788382 0 24.305463 2.996145 28.279941 4.983384l-8.529842 26.414994c-3.332447-1.284062-11.55656-3.607603-22.409942-3.607603-10.08906 0-19.260933 2.720989-26.170411 7.979529-10.119633 7.765519-16.845673 20.759005-16.845673 37.910407 0 19.474943 12.045726 30.848065 31.979263 30.848066 8.804998 0 16.998537-1.345208 23.082547-3.760468l2.323541 26.231556zM1811.108565 780.9015l-9.1413 48.244051h41.120563l9.1413-48.244051h32.590721l-24.27489 128.283927H1827.954238l9.661039-51.056758H1796.464142l-9.599894 51.056758h-32.437857l24.27489-128.283927h32.437857zM1952.202541 879.040539l-12.748903 30.175461h-34.791971l60.962381-128.283927h42.404625l13.696663 128.283927h-34.211085l-1.4675-30.175461h-33.84421z m32.651867-24.519474l-1.436927-23.54114c-0.489167-7.184634-0.94776-17.885152-1.559218-25.834108h-0.366875c-3.271301 7.948956-6.94005 18.741193-10.241925 25.925827l-9.844477 23.449421h23.449422zM2063.151628 909.185427l24.27489-128.283927h38.644157l11.525987 38.735876c5.04453 17.090256 8.713279 31.73468 11.892861 47.265718h0.51974c0.519739-13.849528 2.568124-29.349993 6.145155-48.54978l7.001196-37.451814h30.26718l-24.27489 128.283927h-33.935929l-12.932341-41.884886c-5.411405-18.129735-9.171873-30.878638-12.810049-48.060613h-0.672604c-1.375781 12.748903-4.861093 33.171606-8.896716 54.572643l-6.603749 35.342283h-30.114315z" fill="#BA232B" p-id="4524"></path><path d="M2276.978555 893.990691l0.917187-7.398644h34.639106l0.580885-4.738801H2280.433293l2.782135-22.409942c0.244583-2.078958 1.070052-3.729895 2.476406-4.952812 1.436927-1.222916 3.332447-1.834375 5.717134-1.834374h59.372589c6.084009 0 8.804998 2.659843 8.19354 7.979529l-2.201249 21.248172h-32.560149l-0.580885 4.738801h35.923168l-0.917187 7.398644h-35.800877l-0.458593 4.738801h43.780406l-1.039479 7.857238h-96.212945l0.917187-7.857238h41.456865l0.458593-4.738801h-34.761397z m91.01555-45.278478H2274.318712l0.794895-7.398644h93.797685l-0.917187 7.398644z m-8.896716-11.097966h-74.139305l2.323541-19.627808c0.458594-4.31078 3.271301-6.481457 8.438123-6.481457h58.333111c2.384687 0 4.219061 0.672604 5.533696 2.017812 1.314635 1.345208 1.803802 3.210155 1.498073 5.594843l-1.956666 18.466037z m-44.819885 32.804731h-22.165359l-0.458594 4.494218h22.165359l0.458594-4.494218z m1.16177-10.853383h-22.07364l-0.458594 4.402499h22.073641l0.458593-4.402499z m-18.955203-28.646815h52.218528l0.336302-3.577031h-52.218528l-0.336302 3.577031z m53.716601-12.718331h-52.218529l-0.458593 3.454739h52.218528l0.458594-3.454739z m-25.283796 56.712747h21.951349l0.458594-4.494218h-21.951349l-0.458594 4.494218z m22.990828-10.975675l0.458593-4.402499h-21.829057l-0.458593 4.402499h21.829057zM2418.80628 902.061939l1.742656-11.311976c2.140104 0.917187 4.861093 1.834375 8.071248 2.782134 3.699322 1.222916 6.481457 2.048385 8.315831 2.41526 0.458594 0.152865 0.794896 0.244583 1.039479 0.244584 0.397448 0 0.672604-0.152865 0.856042-0.458594 0.183437-0.305729 0.366875-0.886614 0.519739-1.742656l2.996145-32.560148h-43.19952l1.16177-10.975675h42.954937l0.703177-7.031769 23.11312-17.793433h-53.135716l1.16177-10.731091h62.491026c2.476406 0 4.402499 0.642031 5.839426 1.89552 1.436927 1.284062 2.140104 2.843281 2.140104 4.677656 0 2.62927-1.284062 4.952811-3.821614 7.031769l-26.567858 20.789578-0.122292 1.16177h39.836501l-1.284062 10.975675h-39.62249l-3.36302 38.246709c-0.305729 2.843281-1.314635 5.013957-2.996146 6.481457-1.68151 1.4675-3.852187 2.201249-6.481456 2.201249-1.008906 0-2.048385-0.122292-3.118437-0.336302-7.306925-1.528645-13.757809-3.515885-19.291506-5.900571zM2565.739682 893.868399c-5.533697 1.773229-12.015153 3.424166-19.413798 4.952812-7.551509 1.620364-14.491559 3.026718-20.789578 4.280207l1.284062-11.311976c3.240728-0.611458 9.691612-1.956666 19.413797-4.035624 7.245779-1.528645 14.155257-3.301874 20.789579-5.319687l-1.284062 11.434268z m1.620364-20.544994c-2.078958 0.397448-5.686561 0.978333-10.853383 1.742655l-4.035624 0.580886c-6.084009 0.856041-11.189685 1.4675-15.3476 1.834374-1.375781 0.152865-2.598697 0-3.638177-0.519739-1.039479-0.489167-1.742656-1.253489-2.140103-2.262396-0.397448-0.764323-0.580885-1.498073-0.580886-2.201249 0-1.375781 0.580885-2.782135 1.742656-4.157916 4.31078-4.769374 9.080154-10.517081 14.308122-17.212548a194.443702 194.443702 0 0 1-12.473747 1.375781c-2.843281 0.091719-4.769374-0.886614-5.77828-2.873853-0.397448-0.764323-0.580885-1.528645-0.580885-2.292968 0-1.4675 0.489167-2.812708 1.498072-4.035624 4.708228-6.481457 8.499269-11.923435 11.434268-16.417652 4.555363-6.94005 7.918383-12.50432 10.150206-16.753955h12.71833c-7.245779 12.473747-13.910674 22.80739-19.994682 30.939784 4.157916-0.366875 8.132394-0.94776 11.892861-1.742655 2.231822-2.996145 4.280207-5.931144 6.114582-8.774425h11.892862c-3.607603 5.839426-7.857238 12.076299-12.71833 18.71062-4.402499 5.99229-8.774425 11.434268-13.176924 16.295361l4.616509-0.580886 11.55656-1.620364 4.861092-1.039479-1.498072 10.975675z m54.511497-63.194204l-11.097966 98.169612h-11.097966l3.36302-30.144889c-3.913332 1.161771-7.551509 2.078958-10.853383 2.782135-2.170677 0.458594-5.655988 1.070052-10.517081 1.834374-0.397448 0.091719-1.008906 0.122292-1.834374 0.122292-2.384687 0-4.188489-0.794896-5.380832-2.41526-1.192343-1.620364-1.650937-3.821614-1.314635-6.573175l7.398644-53.930612h10.975674l-6.573176 49.100092c-0.244583 1.4675 0.183437 2.201249 1.284063 2.20125 0.458594 0 1.100625-0.122292 1.89552-0.336302 0.794896-0.244583 1.4675-0.428021 2.017812-0.580886l4.494218-1.16177 5.075103-1.284062 4.616509-1.161771 6.481457-56.590455h11.097966zM2679.837778 893.501525c-4.066197 1.314635-8.743852 2.568124-13.971819 3.821613-2.934999 0.703177-8.040675 1.773229-15.3476 3.240729l1.284062-10.853383c4.769374-0.917187 9.416456-1.926093 13.971819-2.996145 3.852187-0.917187 8.927289-2.323541 15.255882-4.157916l-1.161771 10.975674z m2.537552-20.330985c-3.607603 0.856041-7.092915 1.4675-10.394789 1.834375-4.616509 0.611458-8.896717 1.161771-12.810049 1.620364-1.375781 0.152865-2.568124 0-3.515885-0.51974-0.978333-0.489167-1.68151-1.253489-2.140103-2.262395-0.305729-0.764323-0.458594-1.406354-0.458594-1.956666 0-1.314635 0.489167-2.659843 1.498073-4.035624 2.078958-2.537551 5.380832-7.123488 9.936195-13.757809l1.956666-2.873854c-3.699322 0.458594-6.389738 0.703177-8.071248 0.703177-1.161771 0-2.140104-0.244583-2.934999-0.764323a4.616509 4.616509 0 0 1-1.803802-2.017812c-0.397448-0.764323-0.580885-1.589791-0.580885-2.415259 0-1.375781 0.458594-2.782135 1.375781-4.157916 6.695467-9.844477 13.085205-20.697859 19.169214-32.560148h11.434268c-5.77828 11.250831-11.739997 21.676193-17.915725 31.306659l2.996145-0.336302 3.118437-0.458594c2.537551-4.31078 4.219061-7.245779 5.075103-8.774425h10.975674c-6.328592 12.168018-13.23807 23.449421-20.789578 33.84421 5.013957-0.611458 10.058487-1.528645 15.13359-2.782134l-1.284062 10.394789z m16.753954-27.821347c-1.68151 15.317027-3.393593 27.057025-5.075103 35.219991-2.231822 11.006247-5.197395 20.361557-8.896716 28.065931l-9.813904-2.659844c3.913332-7.918383 6.94005-16.906819 9.019008-26.90416 0.917187-4.463645 1.742656-9.263591 2.41526-14.369267 0.703177-5.105676 1.620364-12.351455 2.782135-21.64562l1.956666-17.334839c0.397448-3.240728 1.253489-5.564269 2.598697-7.001196s3.485312-2.140104 6.420311-2.140104h16.876246l-2.20125-7.734946h11.220258l2.41526 7.734946h24.030306l-1.284062 9.35531h-50.017279l-2.41526 19.413798z m0.580885 42.954937l1.039479-8.774425h17.212548l0.703177-7.154061h-18.007443l3.821613-33.141033c0.305729-2.078958 1.253489-3.791041 2.843281-5.136249s3.485312-2.017812 5.717134-2.017812h27.821347c2.231822 0 4.035624 0.611458 5.380832 1.803802 1.345208 1.192343 2.017812 2.812708 2.017812 4.922238 0 0.703177-0.030573 1.222916-0.122291 1.620364l-3.240729 32.009836h-16.967964l-0.703177 7.154061h18.832912l-1.161771 8.774425h-18.588329l-0.794895 9.019008h23.327129l-1.039478 8.896717h-54.175196l1.161771-8.896717h21.492755l0.794896-9.019008h-17.33484z m20.453277-31.887544h-8.560415l-0.794896 7.857237h8.652134l0.703177-7.857237z m1.620364-16.295361h-8.438123l-0.917187 8.071248h8.560414l0.794896-8.071248z m6.94005 24.152598h8.19354l0.703177-7.857237h-8.19354l-0.703177 7.857237z m9.599894-16.050777l0.794895-8.071248h-8.071248l-0.794895 8.071248h8.071248z" fill="#BA232B" p-id="4525"></path></svg>